<mxfile host="app.diagrams.net" modified="2023-10-21T12:31:49.966Z" agent="Mozilla/5.0 (Windows NT 10.0; Win64; x64) AppleWebKit/537.36 (KHTML, like Gecko) Chrome/118.0.0.0 Safari/537.36 Edg/118.0.2088.57" version="22.0.6" etag="p1iCFexs4BRUnlfKKjgL" type="device">
  <diagram id="C5RBs43oDa-KdzZeNtuy" name="Page-1">
    <mxGraphModel dx="548" dy="782" grid="1" gridSize="10" guides="1" tooltips="1" connect="1" arrows="1" fold="1" page="1" pageScale="1" pageWidth="827" pageHeight="1169" math="0" shadow="0">
      <root>
        <mxCell id="WIyWlLk6GJQsqaUBKTNV-0" />
        <mxCell id="WIyWlLk6GJQsqaUBKTNV-1" parent="WIyWlLk6GJQsqaUBKTNV-0" />
        <mxCell id="zkfFHV4jXpPFQw0GAbJ--0" value="&lt;&lt;interface&gt;&gt;&#xa;IChatMediator" style="swimlane;fontStyle=2;align=center;verticalAlign=top;childLayout=stackLayout;horizontal=1;startSize=40;horizontalStack=0;resizeParent=1;resizeLast=0;collapsible=1;marginBottom=0;rounded=0;shadow=0;strokeWidth=1;" parent="WIyWlLk6GJQsqaUBKTNV-1" vertex="1">
          <mxGeometry x="140" y="140" width="250" height="100" as="geometry">
            <mxRectangle x="230" y="140" width="160" height="26" as="alternateBounds" />
          </mxGeometry>
        </mxCell>
        <mxCell id="zkfFHV4jXpPFQw0GAbJ--1" value="AddUser(User user);" style="text;align=left;verticalAlign=top;spacingLeft=4;spacingRight=4;overflow=hidden;rotatable=0;points=[[0,0.5],[1,0.5]];portConstraint=eastwest;" parent="zkfFHV4jXpPFQw0GAbJ--0" vertex="1">
          <mxGeometry y="40" width="250" height="26" as="geometry" />
        </mxCell>
        <mxCell id="zkfFHV4jXpPFQw0GAbJ--2" value="SendMessage(string message, User user);" style="text;align=left;verticalAlign=top;spacingLeft=4;spacingRight=4;overflow=hidden;rotatable=0;points=[[0,0.5],[1,0.5]];portConstraint=eastwest;rounded=0;shadow=0;html=0;" parent="zkfFHV4jXpPFQw0GAbJ--0" vertex="1">
          <mxGeometry y="66" width="250" height="26" as="geometry" />
        </mxCell>
        <mxCell id="y_0JVDupvdMZQ6ZYAHOd-6" style="edgeStyle=orthogonalEdgeStyle;rounded=0;orthogonalLoop=1;jettySize=auto;html=1;exitX=0.5;exitY=0;exitDx=0;exitDy=0;entryX=0.5;entryY=1;entryDx=0;entryDy=0;endArrow=block;endFill=0;" edge="1" parent="WIyWlLk6GJQsqaUBKTNV-1" source="y_0JVDupvdMZQ6ZYAHOd-0" target="zkfFHV4jXpPFQw0GAbJ--0">
          <mxGeometry relative="1" as="geometry" />
        </mxCell>
        <mxCell id="y_0JVDupvdMZQ6ZYAHOd-7" style="edgeStyle=orthogonalEdgeStyle;rounded=0;orthogonalLoop=1;jettySize=auto;html=1;entryX=0;entryY=0.5;entryDx=0;entryDy=0;endArrow=diamond;endFill=1;" edge="1" parent="WIyWlLk6GJQsqaUBKTNV-1" source="y_0JVDupvdMZQ6ZYAHOd-0" target="y_0JVDupvdMZQ6ZYAHOd-4">
          <mxGeometry relative="1" as="geometry" />
        </mxCell>
        <mxCell id="y_0JVDupvdMZQ6ZYAHOd-8" value="has-many" style="edgeLabel;html=1;align=center;verticalAlign=middle;resizable=0;points=[];" vertex="1" connectable="0" parent="y_0JVDupvdMZQ6ZYAHOd-7">
          <mxGeometry x="-0.0889" y="-1" relative="1" as="geometry">
            <mxPoint as="offset" />
          </mxGeometry>
        </mxCell>
        <mxCell id="y_0JVDupvdMZQ6ZYAHOd-0" value="ChatMediator" style="swimlane;fontStyle=2;align=center;verticalAlign=top;childLayout=stackLayout;horizontal=1;startSize=30;horizontalStack=0;resizeParent=1;resizeLast=0;collapsible=1;marginBottom=0;rounded=0;shadow=0;strokeWidth=1;" vertex="1" parent="WIyWlLk6GJQsqaUBKTNV-1">
          <mxGeometry x="140" y="290" width="250" height="90" as="geometry">
            <mxRectangle x="230" y="140" width="160" height="26" as="alternateBounds" />
          </mxGeometry>
        </mxCell>
        <mxCell id="y_0JVDupvdMZQ6ZYAHOd-1" value="AddUser(User user);" style="text;align=left;verticalAlign=top;spacingLeft=4;spacingRight=4;overflow=hidden;rotatable=0;points=[[0,0.5],[1,0.5]];portConstraint=eastwest;" vertex="1" parent="y_0JVDupvdMZQ6ZYAHOd-0">
          <mxGeometry y="30" width="250" height="26" as="geometry" />
        </mxCell>
        <mxCell id="y_0JVDupvdMZQ6ZYAHOd-2" value="SendMessage(string message, User user);" style="text;align=left;verticalAlign=top;spacingLeft=4;spacingRight=4;overflow=hidden;rotatable=0;points=[[0,0.5],[1,0.5]];portConstraint=eastwest;rounded=0;shadow=0;html=0;" vertex="1" parent="y_0JVDupvdMZQ6ZYAHOd-0">
          <mxGeometry y="56" width="250" height="26" as="geometry" />
        </mxCell>
        <mxCell id="y_0JVDupvdMZQ6ZYAHOd-3" value="User" style="swimlane;fontStyle=2;align=center;verticalAlign=top;childLayout=stackLayout;horizontal=1;startSize=30;horizontalStack=0;resizeParent=1;resizeLast=0;collapsible=1;marginBottom=0;rounded=0;shadow=0;strokeWidth=1;" vertex="1" parent="WIyWlLk6GJQsqaUBKTNV-1">
          <mxGeometry x="480" y="292" width="150" height="90" as="geometry">
            <mxRectangle x="230" y="140" width="160" height="26" as="alternateBounds" />
          </mxGeometry>
        </mxCell>
        <mxCell id="y_0JVDupvdMZQ6ZYAHOd-4" value="Send(string message);" style="text;align=left;verticalAlign=top;spacingLeft=4;spacingRight=4;overflow=hidden;rotatable=0;points=[[0,0.5],[1,0.5]];portConstraint=eastwest;" vertex="1" parent="y_0JVDupvdMZQ6ZYAHOd-3">
          <mxGeometry y="30" width="150" height="26" as="geometry" />
        </mxCell>
        <mxCell id="y_0JVDupvdMZQ6ZYAHOd-5" value="Receive(string message);" style="text;align=left;verticalAlign=top;spacingLeft=4;spacingRight=4;overflow=hidden;rotatable=0;points=[[0,0.5],[1,0.5]];portConstraint=eastwest;rounded=0;shadow=0;html=0;" vertex="1" parent="y_0JVDupvdMZQ6ZYAHOd-3">
          <mxGeometry y="56" width="150" height="26" as="geometry" />
        </mxCell>
        <mxCell id="y_0JVDupvdMZQ6ZYAHOd-9" style="edgeStyle=orthogonalEdgeStyle;rounded=0;orthogonalLoop=1;jettySize=auto;html=1;exitX=0;exitY=0.5;exitDx=0;exitDy=0;entryX=1;entryY=0.5;entryDx=0;entryDy=0;" edge="1" parent="WIyWlLk6GJQsqaUBKTNV-1" source="y_0JVDupvdMZQ6ZYAHOd-5" target="y_0JVDupvdMZQ6ZYAHOd-2">
          <mxGeometry relative="1" as="geometry" />
        </mxCell>
        <mxCell id="y_0JVDupvdMZQ6ZYAHOd-10" value="has-a" style="edgeLabel;html=1;align=center;verticalAlign=middle;resizable=0;points=[];" vertex="1" connectable="0" parent="y_0JVDupvdMZQ6ZYAHOd-9">
          <mxGeometry x="0.0217" y="-1" relative="1" as="geometry">
            <mxPoint x="1" y="1" as="offset" />
          </mxGeometry>
        </mxCell>
        <mxCell id="y_0JVDupvdMZQ6ZYAHOd-16" style="edgeStyle=orthogonalEdgeStyle;rounded=0;orthogonalLoop=1;jettySize=auto;html=1;exitX=1;exitY=1;exitDx=0;exitDy=0;entryX=0;entryY=0;entryDx=0;entryDy=0;" edge="1" parent="WIyWlLk6GJQsqaUBKTNV-1" source="y_0JVDupvdMZQ6ZYAHOd-11" target="y_0JVDupvdMZQ6ZYAHOd-15">
          <mxGeometry relative="1" as="geometry" />
        </mxCell>
        <mxCell id="y_0JVDupvdMZQ6ZYAHOd-17" style="edgeStyle=orthogonalEdgeStyle;rounded=0;orthogonalLoop=1;jettySize=auto;html=1;exitX=0;exitY=1;exitDx=0;exitDy=0;entryX=1;entryY=0;entryDx=0;entryDy=0;" edge="1" parent="WIyWlLk6GJQsqaUBKTNV-1" source="y_0JVDupvdMZQ6ZYAHOd-11" target="y_0JVDupvdMZQ6ZYAHOd-13">
          <mxGeometry relative="1" as="geometry" />
        </mxCell>
        <mxCell id="y_0JVDupvdMZQ6ZYAHOd-18" style="edgeStyle=orthogonalEdgeStyle;rounded=0;orthogonalLoop=1;jettySize=auto;html=1;exitX=0;exitY=0;exitDx=0;exitDy=0;entryX=1;entryY=0.5;entryDx=0;entryDy=0;" edge="1" parent="WIyWlLk6GJQsqaUBKTNV-1" source="y_0JVDupvdMZQ6ZYAHOd-11" target="y_0JVDupvdMZQ6ZYAHOd-12">
          <mxGeometry relative="1" as="geometry">
            <Array as="points">
              <mxPoint x="510" y="160" />
              <mxPoint x="510" y="130" />
            </Array>
          </mxGeometry>
        </mxCell>
        <mxCell id="y_0JVDupvdMZQ6ZYAHOd-19" style="edgeStyle=orthogonalEdgeStyle;rounded=0;orthogonalLoop=1;jettySize=auto;html=1;exitX=1;exitY=0;exitDx=0;exitDy=0;entryX=0;entryY=0.5;entryDx=0;entryDy=0;" edge="1" parent="WIyWlLk6GJQsqaUBKTNV-1" source="y_0JVDupvdMZQ6ZYAHOd-11" target="y_0JVDupvdMZQ6ZYAHOd-14">
          <mxGeometry relative="1" as="geometry">
            <Array as="points">
              <mxPoint x="590" y="160" />
              <mxPoint x="590" y="130" />
            </Array>
          </mxGeometry>
        </mxCell>
        <mxCell id="y_0JVDupvdMZQ6ZYAHOd-11" value="Mediator" style="rhombus;whiteSpace=wrap;html=1;" vertex="1" parent="WIyWlLk6GJQsqaUBKTNV-1">
          <mxGeometry x="510" y="140" width="80" height="80" as="geometry" />
        </mxCell>
        <mxCell id="y_0JVDupvdMZQ6ZYAHOd-12" value="User" style="ellipse;whiteSpace=wrap;html=1;aspect=fixed;" vertex="1" parent="WIyWlLk6GJQsqaUBKTNV-1">
          <mxGeometry x="460" y="110" width="40" height="40" as="geometry" />
        </mxCell>
        <mxCell id="y_0JVDupvdMZQ6ZYAHOd-13" value="User" style="ellipse;whiteSpace=wrap;html=1;aspect=fixed;" vertex="1" parent="WIyWlLk6GJQsqaUBKTNV-1">
          <mxGeometry x="460" y="210" width="40" height="40" as="geometry" />
        </mxCell>
        <mxCell id="y_0JVDupvdMZQ6ZYAHOd-14" value="User" style="ellipse;whiteSpace=wrap;html=1;aspect=fixed;" vertex="1" parent="WIyWlLk6GJQsqaUBKTNV-1">
          <mxGeometry x="600" y="110" width="40" height="40" as="geometry" />
        </mxCell>
        <mxCell id="y_0JVDupvdMZQ6ZYAHOd-15" value="User" style="ellipse;whiteSpace=wrap;html=1;aspect=fixed;" vertex="1" parent="WIyWlLk6GJQsqaUBKTNV-1">
          <mxGeometry x="600" y="210" width="40" height="40" as="geometry" />
        </mxCell>
        <mxCell id="y_0JVDupvdMZQ6ZYAHOd-20" value="&lt;font style=&quot;font-size: 35px;&quot;&gt;The Mediator Pattern&lt;/font&gt;" style="text;html=1;align=center;verticalAlign=middle;resizable=0;points=[];autosize=1;strokeColor=#d6b656;fillColor=#fff2cc;" vertex="1" parent="WIyWlLk6GJQsqaUBKTNV-1">
          <mxGeometry x="180" width="350" height="60" as="geometry" />
        </mxCell>
      </root>
    </mxGraphModel>
  </diagram>
</mxfile>
